<svg width="1441" height="454" viewBox="0 0 1441 454" fill="none" xmlns="http://www.w3.org/2000/svg">
<path fill-rule="evenodd" clip-rule="evenodd" d="M0 87L18 123C35 159 70 231 104 209C138 187 172 72 207 36C241 0 275 43 310 87C344 130 378 173 412 216C447 259 481 109 515 123C550 137 622 234.5 656 176.5C690 119.5 687 101 721 65C755 29 790 58 824 94C858 130 892 173 927 166C961 159 995 101 1030 72C1064 43 1098 43 1132 72C1167 101 1201 159 1235 166C1270 173 1304 130 1338 94C1372 58 1407 29 1424 15L1440 0V389H1424C1407 389 1372 389 1338 389C1304 389 1270 389 1235 389C1201 389 1167 389 1132 389C1098 389 1064 389 1030 389C995 389 961 389 927 389C892 389 858 389 824 389C790 389 755 389 721 389C687 389 652 389 618 389C584 389 550 389 515 389C481 389 447 389 412 389C378 389 344 389 310 389C275 389 241 389 207 389C172 389 138 389 104 389C70 389 35 389 18 389H0V87Z" fill="#DBDCB9"/>
<path fill-rule="evenodd" clip-rule="evenodd" d="M1441 176L1422.97 219.222C1403.74 262.444 1340.43 336.389 1304.37 358C1259.33 364 1255.9 348.889 1218.64 305.667C1182.58 262.444 1145.32 219.222 1108.06 197.611C1070.8 176 1034.74 176 997.48 197.611C960.219 219.222 922.959 262.444 885.698 276.852C849.64 291.259 812.379 276.852 775.119 291.259C737.858 305.667 701.799 348.889 664.539 348.889C627.278 348.889 590.018 305.667 553.959 269.648C516.699 233.63 479.438 204.815 442.178 212.019C404.917 219.222 368.859 262.444 331.598 298.463C294.338 334.481 171.343 197.611 135.285 197.611C85.7386 176 37.2605 263.611 0 242C0 322.5 0 315.5 0 371V454H18.0293C37.2605 454 73.1786 454 109.237 454C146.498 454 183.758 454 221.019 454C257.077 454 294.338 454 331.598 454C368.859 454 404.917 454 442.178 454C479.438 454 516.699 454 553.959 454C590.018 454 627.278 454 664.539 454C701.799 454 737.858 454 775.119 454C812.379 454 849.64 454 885.698 454C922.959 454 960.219 454 997.48 454C1034.74 454 1070.8 454 1108.06 454C1145.32 454 1182.58 454 1218.64 454C1255.9 454 1293.16 454 1330.42 454C1366.48 454 1403.74 454 1422.97 454H1441V176Z" fill="#3F5B0E"/>
</svg>
