<svg width="41" height="41" viewBox="0 0 41 41" fill="none" xmlns="http://www.w3.org/2000/svg">
<path d="M20.425 0C9.14375 0 0 9.14375 0 20.425C0 31.7062 9.14375 40.85 20.425 40.85C31.7062 40.85 40.85 31.7062 40.85 20.425C40.85 9.14375 31.7062 0 20.425 0ZM14.2025 31.1363H9.22687V15.1406H14.2025V31.1363ZM11.7087 12.9437C10.1175 12.9437 8.82312 11.6494 8.82312 10.0581C8.82312 8.46687 10.1175 7.1725 11.7087 7.1725C13.3 7.1725 14.5944 8.46687 14.5944 10.0581C14.5944 11.6494 13.3 12.9437 11.7087 12.9437ZM32.8106 31.1363H27.8469V23.3581C27.8469 21.5056 27.8112 19.1187 25.2581 19.1187C22.6694 19.1187 22.2775 21.1375 22.2775 23.2275V31.1481H17.3138V15.1406H22.0875V17.3256H22.1469C23.1206 15.6631 24.9256 14.6656 26.8494 14.7369C31.8844 14.7369 32.8106 18.05 32.8106 22.3606V31.1363Z" fill="#FEFADD"/>
</svg>
