<svg width="64" height="64" viewBox="0 0 64 64" fill="none" xmlns="http://www.w3.org/2000/svg">
<path d="M55.3998 19.0001L53.4998 17.1001L35.8998 34.7001C33.6998 36.9001 29.9998 36.9001 27.7998 34.7001L10.1998 17.2001L8.2998 19.1001L21.3998 32.2001L8.2998 45.3001L10.1998 47.2001L23.2998 34.1001L25.8998 36.7001C27.4998 38.3001 29.5998 39.2001 31.7998 39.2001C33.9998 39.2001 36.0998 38.3001 37.6998 36.7001L40.2998 34.1001L53.3998 47.2001L55.2998 45.3001L42.1998 32.2001L55.3998 19.0001Z" fill="#FEFADD"/>
<path d="M51.7 50.6H12.2C9.9 50.6 8 48.7 8 46.4V18.2C8 15.9 9.9 14 12.2 14H51.7C54 14 55.9 15.9 55.9 18.2V46.4C55.9 48.7 54 50.6 51.7 50.6ZM12.1 16.7C11.3 16.7 10.7 17.3 10.7 18.1V46.3C10.7 47.1 11.3 47.7 12.1 47.7H51.6C52.4 47.7 53 47.1 53 46.3V18.1C53 17.3 52.4 16.7 51.6 16.7H12.1Z" fill="#FEFADD"/>
<rect x="1" y="1" width="62" height="62" rx="4" stroke="#FEFADD" stroke-width="2"/>
</svg>
