<svg width="1441" height="887" viewBox="0 0 1441 887" fill="none" xmlns="http://www.w3.org/2000/svg">
<path fill-rule="evenodd" clip-rule="evenodd" d="M0 87L17.0118 123C34.0236 159 69.0479 231 103.072 209C137.095 187 171.119 72 206.143 36C240.167 0 274.19 43 309.215 87C343.238 130 377.262 173 411.285 216C446.31 259 480.333 303 514.357 317C549.381 331 583.405 317 617.428 259C651.452 202 686.476 101 720.5 65C754.524 29 789.548 58 823.571 94C857.595 130 891.619 173 926.643 166C960.667 159 994.69 101 1029.71 72C1063.74 43 1097.76 43 1131.79 72C1166.81 101 1200.83 159 1234.86 166C1269.88 173 1303.9 130 1337.93 94C1371.95 58 1406.98 29 1423.99 15L1441 0V389H1423.99C1406.98 389 1371.95 389 1337.93 389C1303.9 389 1269.88 389 1234.86 389C1200.83 389 1166.81 389 1131.79 389C1097.76 389 1063.74 389 1029.71 389C994.69 389 960.667 389 926.643 389C891.619 389 857.595 389 823.571 389C789.548 389 754.524 389 720.5 389C686.476 389 651.452 389 617.428 389C583.405 389 549.381 389 514.357 389C480.333 389 446.31 389 411.285 389C377.262 389 343.238 389 309.215 389C274.19 389 240.167 389 206.143 389C171.119 389 137.095 389 103.072 389C69.0479 389 34.0236 389 17.0118 389H0V87Z" fill="#DBDCB9"/>
<path fill-rule="evenodd" clip-rule="evenodd" d="M0 150L18.0125 193.222C37.2258 236.444 100.475 310.389 136.5 332C181.5 338 184.928 322.889 222.154 279.667C258.179 236.444 295.405 193.222 332.631 171.611C369.857 150 405.882 150 443.107 171.611C480.333 193.222 517.559 236.444 554.785 250.852C590.81 265.259 628.036 250.852 665.262 265.259C702.487 279.667 738.513 322.889 775.738 322.889C812.964 322.889 850.19 279.667 886.215 243.648C923.441 207.63 960.667 178.815 997.893 186.019C1035.12 193.222 1071.14 236.444 1108.37 272.463C1145.59 308.481 1268.47 171.611 1304.5 171.611C1354 150 1381.27 236.111 1418.5 214.5C1454.53 192.889 1407.29 241.204 1426.5 234L1431 536L1422.99 539C1403.77 539 1366.55 539 1330.52 539C1293.3 539 1256.07 539 1218.85 539C1182.82 539 1145.59 539 1108.37 539C1071.14 539 1035.12 539 997.893 539C960.667 539 923.441 539 886.215 539C850.19 539 812.964 539 775.738 539C738.513 539 702.487 539 665.262 539C628.036 539 590.81 539 554.785 539C517.559 539 480.333 539 443.107 539C405.882 539 369.857 539 332.631 539C295.405 539 258.179 539 222.154 539C184.928 539 147.703 539 110.477 539C74.4517 539 37.2258 539 18.0125 539H0V150Z" fill="#3F5B0E"/>
<path fill-rule="evenodd" clip-rule="evenodd" d="M0 418.304L30.0208 371.005C60.0417 323.707 120.083 229.109 180.125 229.109C240.167 229.109 300.208 323.707 360.25 386.772C420.292 449.837 480.333 481.37 540.375 449.837C600.417 418.304 660.458 323.707 720.5 284.291C780.542 244.875 840.583 260.641 900.625 276.408C960.667 292.174 1020.71 307.94 1080.75 347.356C1140.79 386.772 1226.85 244.875 1286.89 229.109C1346.93 213.342 1410.98 212.799 1441 165.5V229.109V535.5H1424.5C1394.48 535.5 1320.92 607.5 1260.88 607.5C1200.83 607.5 1159.54 590 1099.5 590C1039.46 590 972.042 501.5 912 501.5C851.958 501.5 780.542 607.5 720.5 607.5C660.458 607.5 600.417 607.5 540.375 607.5C480.333 607.5 420.292 607.5 360.25 607.5C300.208 607.5 240.167 607.5 180.125 607.5C120.083 607.5 60.0417 607.5 30.0208 607.5H0V418.304Z" fill="#BDD86B"/>
<path fill-rule="evenodd" clip-rule="evenodd" d="M1 633.075L25 683.104C49 733.133 97 834.192 145 870.212C193 906.233 241 877.217 289 849.2C337 820.184 385 791.167 433 769.154C481 748.142 529 733.133 577 741.138C625 748.142 673 777.159 721 741.138C769 705.117 817 604.058 865 568.038C913 532.017 961 561.034 1009 589.05C1057 618.067 1105 647.083 1153 676.1C1201 705.117 1249 733.133 1297 712.121C1345 690.108 1393 618.067 1417 582.046L1441 546.025V503H1417C1393 503 1345 503 1297 503C1249 503 1201 503 1153 503C1105 503 1057 503 1009 503C961 503 913 503 865 503C817 503 769 503 721 503C673 503 625 503 577 503C529 503 481 503 433 503C385 503 337 503 289 503C241 503 193 503 145 503C97 503 49 503 25 503H1V633.075Z" fill="#3F5B0E"/>
<path fill-rule="evenodd" clip-rule="evenodd" d="M1 623.075L25 673.104C49 723.133 97 824.192 145 860.212C193 896.233 241 867.217 289 839.2C337 810.184 385 781.167 433 759.154C481 738.142 529 723.133 577 731.138C625 738.142 673 767.159 721 731.138C769 695.117 817 594.058 865 558.038C913 522.017 961 551.034 1009 579.05C1057 608.067 1105 637.083 1153 666.1C1201 695.117 1249 723.133 1297 702.121C1345 680.108 1393 608.067 1417 572.046L1441 536.025V493H1417C1393 493 1345 493 1297 493C1249 493 1201 493 1153 493C1105 493 1057 493 1009 493C961 493 913 493 865 493C817 493 769 493 721 493C673 493 625 493 577 493C529 493 481 493 433 493C385 493 337 493 289 493C241 493 193 493 145 493C97 493 49 493 25 493H1V623.075Z" fill="#BDD86B"/>
</svg>
