<svg width="41" height="41" viewBox="0 0 41 41" fill="none" xmlns="http://www.w3.org/2000/svg">
<path fill-rule="evenodd" clip-rule="evenodd" d="M20.425 0C9.14566 0 0 9.37411 0 20.9459C0 30.2014 5.85395 38.0436 13.9692 40.8157C14.9905 41.0072 15.3643 40.3597 15.3643 39.8035C15.3643 39.302 15.3461 37.9889 15.337 36.2381C9.65628 37.5056 8.45267 33.4295 8.45267 33.4295C7.5226 31.013 6.18221 30.3656 6.18221 30.3656C4.33119 29.0616 6.31898 29.0889 6.31898 29.0889C8.3706 29.2348 9.44656 31.2501 9.44656 31.2501C11.2702 34.4508 14.2246 33.5298 15.3917 32.9918C15.5741 31.6422 16.1029 30.7121 16.6865 30.1923C12.1547 29.6634 7.38583 27.867 7.38583 19.8425C7.38583 17.5537 8.17912 15.6843 9.48304 14.2253C9.27331 13.6964 8.5712 11.5626 9.68364 8.68108C9.68364 8.68108 11.3979 8.11572 15.3005 10.824C16.9327 10.3589 18.6743 10.131 20.4159 10.1219C22.1484 10.131 23.8991 10.3589 25.5312 10.824C29.4339 8.11572 31.139 8.68108 31.139 8.68108C32.2514 11.5626 31.5493 13.6964 31.3396 14.2253C32.6435 15.6934 33.4368 17.5628 33.4368 19.8425C33.4368 27.8852 28.6588 29.6543 24.1088 30.1741C24.8383 30.8215 25.4948 32.0981 25.4948 34.0495C25.4948 36.849 25.4674 39.1105 25.4674 39.7944C25.4674 40.3506 25.8322 41.0072 26.8716 40.7974C35.0052 38.0345 40.85 30.1923 40.85 20.9459C40.85 9.37411 31.7043 0 20.425 0Z" fill="#FEFADD"/>
</svg>
